<?xml version="1.0" encoding="UTF-8"?>
<!DOCTYPE svg PUBLIC "-//W3C//DTD SVG 1.0//EN" "http://www.w3.org/TR/2001/REC-SVG-20010904/DTD/svg10.dtd">
<!-- Creator: CorelDRAW X8 -->
<svg xmlns="http://www.w3.org/2000/svg" xml:space="preserve" width="12cm" height="5.5cm" version="1.0" style="shape-rendering:geometricPrecision; text-rendering:geometricPrecision; image-rendering:optimizeQuality; fill-rule:evenodd; clip-rule:evenodd"
viewBox="0 0 12000 5500"
 xmlns:xlink="http://www.w3.org/1999/xlink">
 <defs>
  <style type="text/css">
   <![CDATA[
    .fil1 {fill:#2A362F;fill-rule:nonzero}
    .fil2 {fill:#373435;fill-rule:nonzero}
    .fil0 {fill:#BDBFC1;fill-rule:nonzero}
   ]]>
  </style>
 </defs>
 <g id="Camada_x0020_1">
  <metadata id="CorelCorpID_0Corel-Layer"/>
  <g id="_2900954718608">
   <path class="fil0" d="M4608 394l-1967 4325 -362 0 -2089 -4507 1136 0 1105 2468 1070 -2459 1107 173 0 0 0 0zm2564 4325l-2257 0 -1414 -4498 1053 0 1107 3540 1511 0 0 958 0 0zm-532 0l0 -4498 2120 0 0 824 -1054 0 0 987 0 0 0 908 0 0 0 1779 -1066 0 0 0zm3340 -3672l-1220 0 0 1201 1269 0c271,0 477,-52 620,-157 143,-105 214,-255 214,-451 0,-205 -70,-355 -210,-450 -141,-95 -366,-143 -673,-143l0 0zm-1220 3672l0 -4498 1158 0c355,0 638,26 847,77 208,52 393,140 556,261 166,123 297,274 390,457 92,184 137,377 137,582 0,455 -162,814 -486,1081 -323,267 -762,400 -1317,400 -57,0 -101,0 -131,-1 -28,-1 -56,-3 -80,-5l0 1646 -1074 0z"/>
  </g>
  <g id="_2900954718320">
   <path class="fil1" d="M4558 344l-1967 4325 -362 0 -2089 -4507 1136 0 1105 2468 1070 -2459 1107 173 0 0 0 0zm2564 4325l-2257 0 -1414 -4498 1053 0 1107 3540 1511 0 0 958 0 0zm-532 0l0 -4498 2120 0 0 824 -1054 0 0 987 0 0 0 908 0 0 0 1779 -1066 0 0 0zm3340 -3672l-1220 0 0 1201 1269 0c271,0 477,-52 620,-157 143,-105 214,-255 214,-451 0,-205 -70,-355 -210,-450 -141,-95 -366,-143 -673,-143l0 0zm-1220 3672l0 -4498 1158 0c355,0 638,26 847,77 208,52 393,140 556,261 166,123 297,274 390,457 92,184 137,377 137,582 0,455 -162,814 -486,1081 -323,267 -762,400 -1317,400 -57,0 -101,0 -131,-1 -28,-1 -56,-3 -80,-5l0 1646 -1074 0z"/>
  </g>
  <g id="_2900954733520">
   <path class="fil2" d="M2376 5235l0 -66 68 0 0 66 -68 0zm4423 0l0 -66 68 0 0 66 -68 0zm2917 0l0 -66 68 0 0 66 -68 0z"/>
   <path class="fil2" d="M2725 4934c25,58 49,116 73,173 24,57 49,115 73,173 3,5 5,11 8,17 2,6 5,12 8,18l161 -380c1,-5 4,-8 8,-8 2,0 4,0 5,1 1,0 2,1 3,2l12 1c4,0 6,2 6,5 0,1 -1,3 -1,4 -1,2 -1,3 -1,3l-178 416c-1,4 -3,7 -5,10 -1,3 -3,6 -5,9 0,0 0,0 0,-1 0,0 -1,0 -1,0 -1,0 -2,1 -3,2 -1,1 -2,2 -4,2 -1,0 -3,-1 -4,-2 -1,-2 -2,-3 -3,-5 -31,-72 -62,-145 -92,-217 -31,-72 -62,-144 -93,-217l0 -2c-1,0 -1,-1 -1,-1 0,-1 0,-1 0,-1 0,-3 2,-5 7,-7 5,-2 10,-3 16,-3 3,0 5,1 7,2 2,2 3,4 4,6l0 0zm619 3c0,-3 1,-6 3,-8 2,-1 5,-2 9,-2l11 0c3,0 6,1 8,2 2,2 3,5 3,8l0 420c0,7 -4,11 -11,11l-11 0c-8,0 -12,-4 -12,-11l0 -420zm358 53l0 367c0,7 -3,11 -11,11l-11 0c-8,0 -11,-4 -11,-11l0 -430c0,-3 0,-5 1,-7 1,-2 3,-3 7,-3 2,0 5,1 7,3 55,65 110,129 164,193 54,64 109,129 164,193l0 -368c0,-7 4,-11 11,-11l11 0c8,0 12,4 12,11l0 432c-1,2 -1,4 -2,6 -1,2 -3,4 -7,4 -3,0 -6,-2 -8,-5l-327 -385 0 0zm636 -53c0,-3 1,-6 3,-8 2,-1 4,-2 8,-2l11 0c4,0 6,1 8,2 2,2 3,5 3,8l0 420c0,7 -3,11 -11,11l-11 0c-8,0 -11,-4 -11,-11l0 -420zm681 33c3,3 4,5 4,9 0,1 -1,4 -3,6 0,1 -1,1 -2,3 -1,1 -2,3 -4,5 -1,1 -3,3 -4,4 -2,2 -4,2 -5,2l0 0 -1 0c-1,0 -2,0 -3,0 -1,0 -2,-1 -3,-2 -18,-13 -37,-23 -57,-31 -20,-7 -42,-11 -65,-11 -19,0 -37,2 -54,7 -17,5 -33,11 -48,20 -15,8 -29,19 -41,30 -12,12 -23,25 -31,40 -9,14 -16,29 -21,46 -4,16 -7,33 -7,50 0,18 3,35 8,51 4,17 11,32 20,46 9,15 19,28 31,39 13,12 26,22 41,30 15,9 30,15 47,20 17,4 34,6 52,6 42,0 82,-13 121,-40l8 -4c2,-1 3,-1 5,-1 1,0 3,0 5,2 2,2 3,3 5,6 2,2 4,5 5,7 1,3 2,5 2,7 0,2 -1,3 -2,4 -1,2 -2,3 -4,5 -20,15 -42,27 -66,35 -24,8 -50,13 -78,13 -33,0 -63,-6 -91,-18 -29,-12 -54,-28 -75,-48 -21,-21 -37,-45 -50,-72 -12,-28 -18,-57 -18,-88 0,-21 3,-41 8,-60 6,-20 14,-38 24,-54 10,-17 22,-32 37,-46 14,-14 30,-26 47,-36 17,-9 36,-17 56,-22 20,-6 40,-9 62,-9 27,0 53,5 77,13 24,9 47,21 68,36zm270 -33c0,-3 1,-6 3,-8 2,-1 4,-2 8,-2l11 0c4,0 6,1 8,2 3,2 4,5 4,8l0 420c0,7 -4,11 -12,11l-11 0c-7,0 -11,-4 -11,-11l0 -420zm342 255c0,21 4,40 12,59 8,18 18,34 32,48 14,13 30,24 49,32 18,8 39,12 61,12 22,0 43,-4 62,-12 19,-8 35,-19 48,-32 14,-14 24,-30 32,-48 7,-19 11,-38 11,-59l0 -255c0,-3 1,-6 3,-8 2,-1 5,-2 9,-2l10 0c3,0 6,1 9,2 2,2 3,5 3,8l0 258c0,27 -5,51 -15,72 -10,22 -23,41 -40,57 -17,16 -37,29 -59,37 -23,9 -47,14 -73,14 -17,0 -34,-2 -50,-7 -16,-4 -31,-10 -45,-18 -13,-8 -26,-17 -37,-28 -12,-11 -22,-23 -30,-37 -8,-13 -14,-27 -19,-43 -4,-15 -6,-31 -6,-48l0 -257c0,-3 1,-5 2,-7 2,-2 5,-3 8,-3l12 0c3,0 6,1 8,2 2,2 3,5 3,8l0 255 0 0zm612 92c1,-2 3,-4 6,-6 3,-3 6,-4 9,-4 1,0 3,1 5,2 3,1 5,2 6,4 8,10 16,19 24,27 8,7 17,14 27,19 10,6 20,10 32,13 11,2 24,4 39,4 16,0 31,-2 44,-6 14,-3 27,-9 37,-16 10,-8 19,-17 25,-29 6,-11 9,-25 9,-41 0,-12 -2,-23 -8,-32 -5,-9 -12,-17 -20,-24 -9,-7 -19,-13 -31,-18 -12,-6 -24,-11 -38,-16 -20,-8 -39,-16 -57,-23 -17,-7 -33,-16 -46,-25 -13,-10 -23,-21 -31,-34 -7,-13 -11,-29 -11,-49 0,-17 3,-33 10,-47 6,-14 15,-26 26,-36 11,-10 24,-17 40,-22 15,-5 32,-8 49,-8 12,0 24,1 35,4 12,2 23,6 33,11 10,5 20,10 29,17 9,7 17,15 24,24 1,2 2,3 2,4 0,1 1,2 1,3 0,1 -1,2 -2,3 -2,1 -3,3 -5,4 -1,1 -3,3 -5,4 -2,2 -3,3 -5,4 -2,2 -4,2 -6,2 -2,-1 -3,-2 -5,-3 -12,-13 -26,-24 -41,-31 -15,-8 -33,-12 -54,-12 -14,0 -27,2 -38,6 -11,4 -21,9 -29,16 -8,7 -14,16 -19,25 -4,10 -6,21 -6,33 0,13 3,25 10,35 6,9 15,18 27,25 11,7 25,14 41,20 16,7 34,14 53,21 17,7 32,14 46,21 14,8 25,16 35,26 10,9 17,19 23,31 5,12 8,26 8,42 0,20 -4,38 -12,53 -8,16 -19,29 -32,40 -14,10 -29,18 -47,24 -19,5 -38,8 -58,8 -31,0 -59,-7 -85,-19 -25,-12 -47,-32 -66,-60 -1,-1 -1,-2 -2,-4 0,-1 -1,-2 -1,-4 0,-2 2,-4 5,-6l0 0zm1168 51c3,0 6,1 8,3 2,1 3,4 3,8l0 11c0,3 -1,6 -3,8 -2,2 -5,3 -8,3l-251 0c-4,0 -7,-1 -9,-3 -2,-2 -3,-4 -3,-8l0 -420c0,-3 1,-6 3,-8 2,-1 5,-2 9,-2l11 0c4,0 7,1 9,2 2,2 3,5 3,8l0 398 228 0zm579 -408c7,0 11,3 11,11l0 10c0,4 -1,6 -3,8 -2,2 -5,3 -8,3l-274 0 0 222 221 0c3,0 6,1 8,2 3,2 4,5 4,9l0 11c0,3 -1,6 -3,8 -2,2 -5,3 -9,3l-221 0 0 121 278 0c8,0 12,4 12,11l0 11c0,7 -4,11 -11,11l-304 0c-3,0 -6,-1 -7,-3 -2,-2 -3,-5 -3,-8l0 -420c0,-4 2,-7 4,-8 2,-2 5,-2 8,-2l297 0 0 0zm283 10c0,-3 1,-6 3,-8 2,-1 5,-2 9,-2l11 0c3,0 6,1 8,2 2,2 3,5 3,8l0 420c0,7 -4,11 -11,11l-11 0c-8,0 -12,-4 -12,-11l0 -420zm593 -10c3,0 6,1 9,2 2,2 3,5 3,8l0 11c0,3 -1,6 -3,8 -2,2 -5,3 -9,3l-130 0 0 398c0,7 -3,11 -11,11l-11 0c-8,0 -11,-4 -11,-11l0 -398 -134 0c-8,0 -12,-3 -12,-11l0 -11c0,-7 4,-10 12,-10l297 0 0 0zm576 0c8,0 11,3 11,11l0 10c0,4 0,6 -2,8 -2,2 -5,3 -9,3l-274 0 0 222 221 0c4,0 7,1 9,2 2,2 3,5 3,9l0 11c0,3 -1,6 -3,8 -2,2 -5,3 -9,3l-221 0 0 121 279 0c7,0 11,4 11,11l0 11c0,7 -3,11 -11,11l-303 0c-4,0 -6,-1 -8,-3 -1,-2 -2,-5 -2,-8l0 -420c0,-4 1,-7 3,-8 3,-2 5,-2 8,-2l297 0 0 0z"/>
  </g>
 </g>
</svg>
